<svg xmlns="http://www.w3.org/2000/svg" viewBox="0 0 32 32">
  <!-- Background -->
  <rect width="32" height="32" fill="#1a1a1a"/>
  
  <!-- Checkered flag pattern -->
  <!-- Row 1 -->
  <rect x="4" y="6" width="4" height="4" fill="#ffffff"/>
  <rect x="8" y="6" width="4" height="4" fill="#1a1a1a"/>
  <rect x="12" y="6" width="4" height="4" fill="#ffffff"/>
  <rect x="16" y="6" width="4" height="4" fill="#1a1a1a"/>
  <rect x="20" y="6" width="4" height="4" fill="#ffffff"/>
  <rect x="24" y="6" width="4" height="4" fill="#1a1a1a"/>
  
  <!-- Row 2 -->
  <rect x="4" y="10" width="4" height="4" fill="#1a1a1a"/>
  <rect x="8" y="10" width="4" height="4" fill="#ffffff"/>
  <rect x="12" y="10" width="4" height="4" fill="#1a1a1a"/>
  <rect x="16" y="10" width="4" height="4" fill="#ffffff"/>
  <rect x="20" y="10" width="4" height="4" fill="#1a1a1a"/>
  <rect x="24" y="10" width="4" height="4" fill="#ffffff"/>
  
  <!-- Row 3 -->
  <rect x="4" y="14" width="4" height="4" fill="#ffffff"/>
  <rect x="8" y="14" width="4" height="4" fill="#1a1a1a"/>
  <rect x="12" y="14" width="4" height="4" fill="#ffffff"/>
  <rect x="16" y="14" width="4" height="4" fill="#1a1a1a"/>
  <rect x="20" y="14" width="4" height="4" fill="#ffffff"/>
  <rect x="24" y="14" width="4" height="4" fill="#1a1a1a"/>
  
  <!-- Row 4 -->
  <rect x="4" y="18" width="4" height="4" fill="#1a1a1a"/>
  <rect x="8" y="18" width="4" height="4" fill="#ffffff"/>
  <rect x="12" y="18" width="4" height="4" fill="#1a1a1a"/>
  <rect x="16" y="18" width="4" height="4" fill="#ffffff"/>
  <rect x="20" y="18" width="4" height="4" fill="#1a1a1a"/>
  <rect x="24" y="18" width="4" height="4" fill="#ffffff"/>
  
  <!-- Row 5 -->
  <rect x="4" y="22" width="4" height="4" fill="#ffffff"/>
  <rect x="8" y="22" width="4" height="4" fill="#1a1a1a"/>
  <rect x="12" y="22" width="4" height="4" fill="#ffffff"/>
  <rect x="16" y="22" width="4" height="4" fill="#1a1a1a"/>
  <rect x="20" y="22" width="4" height="4" fill="#ffffff"/>
  <rect x="24" y="22" width="4" height="4" fill="#1a1a1a"/>
  
  <!-- Border -->
  <rect x="0" y="0" width="32" height="32" fill="none" stroke="#ffc107" stroke-width="1"/>
</svg>
